<?xml version="1.0" standalone="no"?>
<!DOCTYPE svg PUBLIC "-//W3C//DTD SVG 20010904//EN"
 "http://www.w3.org/TR/2001/REC-SVG-20010904/DTD/svg10.dtd">
<svg version="1.0" xmlns="http://www.w3.org/2000/svg"
 width="200.000000pt" height="200.000000pt" viewBox="0 0 200.000000 200.000000"
 preserveAspectRatio="xMidYMid meet">
<metadata>
Created by potrace 1.15, written by Peter Selinger 2001-2017
</metadata>
<g transform="translate(0.000000,200.000000) scale(0.100000,-0.100000)"
fill="#000000" stroke="none">
<path d="M1176 1505 c-11 -8 -29 -15 -40 -15 -18 0 -88 -24 -151 -51 -57 -25
-97 -59 -221 -183 -74 -75 -143 -136 -152 -136 -28 0 -92 20 -92 29 0 13 -55
67 -112 109 -29 21 -71 55 -93 75 -22 20 -64 48 -93 63 -66 33 -77 25 -87 -62
-7 -72 7 -150 37 -199 29 -47 24 -132 -11 -208 -31 -67 -57 -177 -48 -202 10
-24 103 -21 116 4 6 10 33 35 61 55 37 27 60 36 89 36 38 0 39 1 28 25 -14 28
-22 31 -31 10 -7 -20 -26 -19 -26 2 0 15 -1 15 -19 -1 -10 -9 -23 -16 -29 -14
-5 2 -35 -18 -65 -44 -75 -64 -87 -63 -74 5 6 28 22 72 35 97 36 65 43 191 14
252 -35 75 -43 114 -36 167 4 28 8 51 11 51 9 0 62 -37 113 -80 30 -25 68 -54
85 -64 16 -11 51 -41 77 -67 48 -48 94 -69 152 -69 33 0 44 9 175 145 11 11
38 37 60 58 23 21 41 42 41 46 0 4 12 14 28 22 15 7 41 24 58 36 17 13 39 23
48 23 9 0 34 9 56 20 22 11 52 20 68 20 15 0 37 7 48 15 25 19 77 19 189 0
190 -32 310 -74 365 -127 32 -32 120 -150 120 -162 0 -6 77 -86 84 -86 18 0 1
40 -31 76 -21 23 -49 61 -63 85 -14 24 -50 69 -81 99 -44 44 -70 60 -130 81
-187 67 -427 99 -473 64z"/>
</g>
</svg>
