<svg width="350" height="200" xmlns="http://www.w3.org/2000/svg">
 <!-- Created with Method Draw - http://github.com/duopixel/Method-Draw/ -->
 <defs>
  <filter id="svg_7_blur">
   <feGaussianBlur stdDeviation="0.6" in="SourceGraphic"/>
  </filter>
 </defs>
 <g>
  <title>background</title>
  <rect fill="none" id="canvas_background" height="202" width="352" y="-1" x="-1"/>
  <g display="none" overflow="visible" y="0" x="0" height="100%" width="100%" id="canvasGrid">
   <rect fill="url(#gridpattern)" stroke-width="0" y="0" x="0" height="100%" width="100%"/>
  </g>
 </g>
 <g>
  <title>Layer 1</title>
  <path id="svg_3" d="m433.5,248.5" opacity="0.5" fill-opacity="null" stroke-opacity="null" stroke-width="1.5" stroke="#000" fill="#fff"/>
  <path stroke="#000" id="svg_6" d="m5.512504,144.043911c-1.168201,-4.831024 17.730004,-16.303562 31.500431,-26.099537c10.932992,-7.746466 22.870816,-17.13634 34.240998,-25.421129c9.504,-6.924566 30.477263,-18.613454 32.841279,-26.184323c2.761884,-8.844997 7.700667,-25.14476 13.005397,-37.308154c4.035351,-9.294868 11.692719,-21.515922 15.855207,-21.730177c1.614228,-0.083082 2.997048,4.349442 2.997048,4.349442c0,0 4.375781,29.53417 14.064686,43.771318c3.867124,5.696039 15.075155,5.467369 19.196993,5.114995c27.510259,-2.351695 63.639642,2.372924 63.639642,2.372924c0,0 11.740215,-9.563899 13.703159,-10.580923c4.976892,-2.517201 -0.005082,3.523611 12.282452,14.481543c6.736925,6.007921 10.437147,4.262037 15.754358,2.31343c2.143653,-0.807879 3.421537,-3.444722 5.195377,-4.970192c2.269906,-1.944413 47.944599,-38.497893 52.580508,-40.142349c4.636019,-1.644456 4.433771,8.874613 3.669515,11.433225c-8.422399,28.200809 -31.285924,47.602617 -31.285924,47.602617c0,0 -1.765334,4.127324 -0.971034,8.486988c0.71886,3.958149 12.972814,33.046118 6.548926,31.281364c-2.669983,0.339925 -9.251604,-3.255234 -9.251604,-3.255234c0,0 -6.603602,-4.354553 -11.328208,-10.530733c-3.341787,-4.392293 -5.287941,-11.214514 -5.287941,-11.214514c0,0 -1.518793,-5.545863 -6.010886,-7.148124c-10.851142,-3.870612 -18.953213,0.553132 -21.74006,4.371719c-2.387543,3.265195 -0.920665,8.763883 -0.920665,8.763883c0,0 3.375477,4.336993 1.311575,4.561207c-8.953258,0.914679 -13.135628,-6.812261 -19.360913,-11.089368c-2.168947,-1.47777 -5.487537,-3.925911 -11.105415,1.106919c-2.824402,2.530306 -4.875602,15.497125 -9.268615,19.810662c-2.959271,2.905743 -7.692161,-0.443712 -7.692161,-0.443712c0,0 -7.200516,-2.956457 -12.290848,-3.120916c-23.212792,13.556643 -65.371396,26.007284 -65.371396,26.007284c0,0 5.619865,7.879212 8.566545,13.312903c1.46268,2.709442 1.403917,5.045018 1.403917,5.045018c0,0 1.466988,3.711132 -1.588933,4.227179c-1.811728,0.299171 -19.436576,-3.15289 -28.85221,-7.512554c-7.927769,-3.674048 -14.190719,-9.053093 -14.190719,-9.053093c0,0 -28.849448,2.800647 -47.352877,3.698028c-10.777577,0.503598 -42.883096,0.327345 -44.487604,-6.307616z" stroke-opacity="null" stroke-width="5" fill="#2f62ed"/>
  <text stroke="#000" opacity="0.61" filter="url(#svg_7_blur)" font-style="italic" transform="rotate(-25 169.6810455322265,108.10385894775385) matrix(0.6632205247879028,0,0,0.6632205247879028,23.406173527240753,40.58192676305771) " xml:space="preserve" text-anchor="start" font-family="'Trebuchet MS', Gadget, sans-serif" font-size="39" id="svg_7" y="115.317153" x="142.526215" fill-opacity="null" stroke-opacity="null" stroke-width="0" fill="#000000">MahiFam</text>
 </g>
</svg>