<svg width="200" height="100" xmlns="http://www.w3.org/2000/svg">
 <!-- Created with Method Draw - http://github.com/duopixel/Method-Draw/ -->
 <defs>
  <filter id="svg_7_blur">
   <feGaussianBlur stdDeviation="0.6"/>
  </filter>
 </defs>
 <g>
  <title>background</title>
  <rect x="-1" y="-1" width="202" height="102" id="canvas_background" fill="none"/>
  <g id="canvasGrid" display="none">
   <rect id="svg_1" width="196" height="200" x="1" y="1" stroke-width="0" fill="url(#gridpattern)"/>
  </g>
 </g>
 <g>
  <title>Layer 1</title>
  <path fill="#fff" stroke="#000" stroke-width="1.5" stroke-opacity="null" fill-opacity="null" opacity="0.5" d="m434.5,249.5" id="svg_3"/>
  <path stroke="#000" fill="#2f62ed" stroke-width="5" stroke-opacity="null" d="m6.528552,81.90138c-0.645863,-2.670927 9.802394,-9.013752 17.415649,-14.429658c6.04453,-4.282787 12.644595,-9.474172 18.930828,-14.054579c5.254478,-3.828388 16.849974,-10.290827 18.156965,-14.476536c1.526967,-4.890137 4.257471,-13.901788 7.190298,-20.626564c2.231025,-5.138857 6.464556,-11.895511 8.765873,-12.013969c0.892454,-0.045932 1.656974,2.404676 1.656974,2.404676c0,0 2.419238,16.328562 7.775948,24.199858c2.138015,3.149171 8.334601,3.022746 10.613444,2.827931c15.209603,-1.300185 35.184466,1.311917 35.184466,1.311917c0,0 6.490812,-5.287595 7.576063,-5.849875c2.75158,-1.391685 -0.002809,1.948099 6.790606,8.006412c3.724642,3.3216 5.770384,2.356355 8.710111,1.279026c1.185166,-0.446653 1.891667,-1.904483 2.872371,-2.74787c1.254966,-1.075012 26.50714,-21.284341 29.070197,-22.193509c2.563117,-0.909173 2.451299,4.906507 2.028763,6.321087c-4.656488,15.591387 -17.297053,26.31807 -17.297053,26.31807c0,0 -0.975998,2.281872 -0.536854,4.692204c0.397436,2.188343 7.17228,18.270215 3.620703,17.294532c-1.476152,0.187937 -5.114934,-1.79972 -5.114934,-1.79972c0,0 -3.650934,-2.407501 -6.26303,-5.822127c-1.847576,-2.428372 -2.923544,-6.200174 -2.923544,-6.200174c0,0 -0.839694,-3.066141 -3.323242,-3.951982c-5.999272,-2.139945 -10.478665,0.305809 -12.019431,2.416994c-1.32,1.805226 -0.509005,4.845288 -0.509005,4.845288c0,0 1.866197,2.397792 0.725128,2.521757c-4.949991,0.505699 -7.262298,-3.766295 -10.70407,-6.130982c-1.199148,-0.817015 -3.033897,-2.170519 -6.139856,0.611983c-1.561527,1.398927 -2.695574,8.567896 -5.124338,10.952723c-1.636092,1.606497 -4.252766,-0.245314 -4.252766,-0.245314c0,0 -3.980953,-1.634539 -6.795245,-1.725464c-12.83366,7.495062 -36.141898,14.378655 -36.141898,14.378655c0,0 3.107059,4.35618 4.73619,7.360306c0.808672,1.497969 0.776186,2.789241 0.776186,2.789241c0,0 0.81105,2.051773 -0.878478,2.337082c-1.001646,0.165402 -10.7459,-1.743139 -15.951527,-4.15347c-4.383028,-2.031273 -7.845626,-5.005184 -7.845626,-5.005184c0,0 -15.949995,1.548396 -26.17999,2.044531c-5.958603,0.278425 -23.708788,0.180977 -24.595873,-3.487295z" id="svg_6"/>
  <text stroke="#000" transform="rotate(-23.85880470275879 93.35065460205078,59.85931777954103) matrix(0.49427103996276855,0,0,0.49427103996276855,90.37534556165338,38.08771230280399) " fill="#000000" stroke-width="0" stroke-opacity="null" fill-opacity="null" x="-71.540132" y="58.224427" id="svg_7" font-size="39" font-family="'Trebuchet MS', Gadget, sans-serif" text-anchor="start" xml:space="preserve" font-style="italic" filter="url(#svg_7_blur)" opacity="0.61">MahiFam</text>
 </g>
</svg>